<?xml version="1.0"?>
<svg xmlns:rdf="http://www.w3.org/1999/02/22-rdf-syntax-ns#" xmlns="http://www.w3.org/2000/svg" xmlns:cc="http://web.resource.org/cc/" xmlns:xlink="http://www.w3.org/1999/xlink" xmlns:dc="http://purl.org/dc/elements/1.1/" xmlns:svg="http://www.w3.org/2000/svg" id="Layer_1" xml:space="preserve" overflow="visible" viewBox="0 0 146.044 486.916" version="1.1" enable-background="new 0 0 146.044 486.916">
<g clip-rule="evenodd" fill-rule="evenodd">
	<path d="m134.91 294.96c-0.67 4.59-6.06-0.8 0 0z"/>
	<path d="m98.91 452.94c4.396-2.271 7.684-5.648 9-10.998 2.684-2.391 5.314 1.335 7.998 1.999 7.509-0.176 14.859-0.194 16.998 5-0.461 5.537-2.641 9.357-7.999 9.999-2.7-9.24-15.79-6.56-26-6z" fill="#CBB676"/>
	<path d="m130.91 296.96c0.307 2.306-2.889 1.111-2.999 3-2.93-1.12 1.27-3.25 3-3z"/>
	<path d="m116.91 174.98c-2.61-4.643 2.636-10.005 2-15.998-4.667 6.224-2.672 13.686-4.999 19.998-2.339 6.343-9.188 11.142-6.999 19.998-23.913-11.083-55.923-14.069-88.989-15.998-3.981-10.617-10.698-23.714-11.999-37.995-1.79-19.664 7.911-36.178 20.998-43.995 3.535 3.464 7.737 6.261 9.998 10.999 2.408-1.04 3.319-3.835 6-3 0.15-6.849 3.574-10.423 2.999-17.998 13.286-5.837 31.597-10.075 44.995 1 2.397 1.982 3.577 6.127 5.999 7.999 2.552 1.972 5.698 1.93 7.999 4 11.939 10.741 14.038 29.747 21.997 38.995 0.551 2.217-1.909 1.424-2 3 2.417 2.679 8.763 10.749 1 11.999 4.7 6.7-5.37 12.34-9 17zm-6-12c-5.311 4.406-14.49 6.513-14.998 11.999 7.446-6.552 17.081-10.916 22.997-18.998-7.519-2.319-14.633 2.98-19.997 5.999 6.839-1.16 10.955-5.042 17.997-5.999-1.94 2.01-3.45 4.88-6 7zm-29.997-7c8.875 0.198 18.537-4.112 25.997-2-10.939 1.06-17.977 6.021-24.997 10.999 10.688-4.464 21.516-11.312 33.996-10.999v-3c-12.89 0.44-25.003 1.66-34.997 5zm16.998-13c2.88 3.803 10.642 8 15.998 6-6.1-1.23-11.16-3.5-15.999-6zm-14.998-28c-6.192 1.165-12.206-3.089-16.998 0 7.117 5.881 11.119 14.877 24.997 13.999-0.961-6.37-4.811-9.85-7.999-14z" fill="#CBB676"/>
	<path d="m48.917 456.94c17.786-0.477 31.176 0.641 44.994-4 8.964 5.872 23.708-3.762 29.996 6-0.106 4.153-5.256 14.059-11.998 18.997-9.045 6.625-28.916 7.518-40.995 5.999-14.305-1.8-21.127-11.2-21.998-27z" fill="#CBB676"/>
	<path d="m120.91 228.97c0.467 2.134-1.429 1.904-3 2 0.189-0.81 1.003-0.997 1-2h2z"/>
	<path d="m115.91 229.97c2.71 0.884-0.842 4.436-2 2 0.25-1.09 1.99-0.68 2-2z"/>
	<path d="m115.91 150.98v3c-12.48-0.314-23.309 6.535-33.996 10.999 7.021-4.978 14.058-9.939 24.997-10.999-7.46-2.112-17.122 2.198-25.997 2 9.994-3.34 22.107-4.56 34.997-5z"/>
	<path d="m111.91 230.97c3.032 1.827-2.843 3.062-4.999 3-0.48-3.15 4.58-0.75 5-3z"/>
	<path d="m106.91 302.96c-2.898-1.375 0.383-13.339 0-4-0.09 2.73 1.67 2.02 0 4z"/>
	<path d="m106.91 282.96c-0.19 0.81-1.004 0.997-1 2-2.36-0.53-0.61-4.73 1-2z"/>
	<path d="m106.91 293.96c-3.559-1.569-0.201-4.254-2-7.999 3.94-0.61 1.17 5.49 2 8z"/>
	<path d="m105.91 276.96c-1.23-0.437-2.054-1.279-2-3 2.13-0.46 1.9 1.43 2 3z"/>
	<path d="m104.91 243.97c-0.658 2.995-2.138-0.956-4 0 0.248-1.086 1.988-0.678 2-2 1.09 0.25 0.68 1.99 2 2z" fill="#0069AA"/>
	<path d="m102.91 260.97c-1.759-0.241-2.279-1.721-2-4 1.34 0.65 1.86 2.13 2 4z"/>
	<path d="m101.91 254.97c-0.895 2.7-4.059-0.464-3-3 2.31-0.31 1.11 2.89 3 3z"/>
	<path d="m70.914 310.96c0.111 2.447 3.306 0.212 3-1 2.195 1.302-1.183 5.404-1 7.999-11.401 4.379-23.941 14.446-37.995 9.998-0.854-3.187 0.87-3.795 1.999-4.999-0.997-1.336-2.702-1.964-2.999-4 1.715-21.164-5.708-51.608-1-73.99 2.459-11.692 9.968-24.736 16.998-28.997 17.054-10.334 30.728 3.515 38.995 15.998-1.151 1.182-1.132 3.535-1 6 8.83 17.833 13.777 39.549 13.998 65.991-5.996 3.003-15.128 2.87-23.997 3-1.181-13.031-3.297-27.963 0-39.995 3.819-0.486 3.13 3.536 4.999 5 0.492-4.158-1.186-6.147-3.999-7-0.169-2.168 3.546-0.452 4.999-0.999-1.26-1.337-3.005-1.964-1-4-14.221 4.824-7.979 33.007-7.998 48.994-0.615 1.4-3.85 0.16-4 2.01zm-3 4c0.809-0.339 1.207-2.655 0-3-2.317-0.66-2.163 3.91 0 3zm-8.998 4c2.815-2.091 6.713-2.051 4.999-4.999-0.984 2.35-5.006 1.66-4.999 5zm-4 3c0.111-1.889 3.306-0.693 3-3-1.728-0.25-5.922 1.88-3 3zm-5.999 1c1.771-0.228 5.007 1.008 3.999-2-2.28-0.28-3.759 0.24-3.999 2zm-9 1c1.361 0.272 3.903-0.619 2-1-1.361-0.27-3.903 0.62-2 1z" fill="#fff"/>
	<path d="m97.91 239.97c1.383-4.048-2.17-3.162-1.999-5.999 2.146-3.46 8.689 6.85 1.999 6z"/>
	<path d="m100.91 441.94c-0.227 1.44-2.984 0.349-3 1.999-3.012-1.26 2.23-4.08 3-2z"/>
	<path d="m92.911 310.96c-0.667 4.58-6.053-0.8 0 0z"/>
	<path d="m90.912 128.98c-13.878 0.879-17.88-8.118-24.997-13.999 4.792-3.089 10.806 1.165 16.998 0 3.188 4.15 7.038 7.63 7.999 14zm-5-6c0.044 1.376-0.471 2.196-1 3h3v-2c-1.003 0.01-1.19-0.81-2-1zm-8.999-6c-1.377 1.289-0.989 4.343-0.999 6.999 2.871 1.188 5.308 2.096 7.999 1 3.201-5.35-2.09-10.75-7-8zm-5.999 0c1.889 0.111 0.694 3.306 3 3 0.314-1.352 1.423-1.91 1-4-1.497 0.18-3.691-0.35-4 1z"/>
	<path d="m90.912 443.94c-0.658 1.343-2.138 1.862-4 2 0.24-1.76 1.72-2.28 4-2z"/>
	<path d="m87.912 123.98v2h-3c0.529-0.804 1.044-1.623 1-3 0.81 0.19 0.997 1.01 2 1z" fill="#fff"/>
	<path d="m84.912 444.94c1.904 0.381-0.639 1.272-2 1-1.903-0.38 0.638-1.27 2-1z"/>
	<path d="m83.913 124.98c-2.691 1.096-5.128 0.188-7.999-1 0.01-2.656-0.378-5.71 0.999-6.999 4.91-2.75 10.201 2.65 7 8zm-7-4c1.406 0.261 1.141 2.193 2 3 2.322-0.344 4.686-0.647 4-4-1.283-1.37-5.98-1.74-6 1z" fill="#F7AFC3"/>
	<path d="m79.913 444.94c3.442 2.59-5.143 2.42 0 0z"/>
	<path d="m76.913 446.94c-0.31 1.357-2.503 0.83-3.999 1 0.279-2.32 2.669-2.29 3.999-1z"/>
	<path d="m74.914 115.98c0.423 2.09-0.686 2.647-1 4-2.306 0.306-1.111-2.889-3-3 0.309-1.35 2.503-0.82 4-1z" fill="#fff"/>
	<path d="m71.914 446.94c-0.241 1.759-1.721 2.279-4 2-1.008-3 2.228-1.77 4-2z"/>
	<path d="m67.914 311.96c1.207 0.345 0.809 2.661 0 3-2.163 0.91-2.317-3.66 0-3z"/>
	<path d="m65.915 446.94v2h-4v-2h4z"/>
	<path d="m59.915 447.94c0.319 1.765-5.601 1.784-3.999-1 2.089-0.42 2.647 0.69 3.999 1z"/>
	<path d="m57.916 318.96c0.306 2.307-2.889 1.111-3 3-2.922-1.12 1.272-3.25 3-3z"/>
	<path d="m54.916 446.94v2h-3.999v-2h3.999z"/>
	<path d="m52.916 320.96c1.008 3.008-2.228 1.772-3.999 2 0.24-1.76 1.719-2.28 3.999-2z"/>
	<path d="m52.916 352.96c-0.406 2.49-3.876 0.06-2.999-2 1.313 0.35 1.572 1.76 2.999 2z"/>
	<path d="m48.917 347.96c1.729 3.8-2.894-6.37 0 0z"/>
	<path d="m48.917 445.94c0.467 2.134-1.429 1.904-3 2 0.19-0.81 1.003-0.997 1-2h2z"/>
	<path d="m47.917 344.96c-1.759-0.24-2.279-1.72-2-3.999 1.341 0.66 1.862 2.13 2 4z"/>
	<path d="m38.917 105.99c-6.392-2.619-15.371-11.901-16.998-21.998-1.192-7.403 2.143-16.238 1-23.997-1.435-9.749-10.361-17.863-10.998-24.997-0.896-10.037 6.365-17.717 5.999-25.997 5.003 5.861 9.741 13.833 14.998 21.998 7.243 11.248 15.118 18.476 12.998 37.995-1.406 12.945-9.583 24.571-6.999 36.996z" fill="#F1E5C8"/>
	<path d="m45.917 338.96c-1.229-0.437-2.054-1.279-1.999-3 2.132-0.47 1.904 1.43 1.999 3z"/>
	<path d="m43.917 445.94c0.396 1.94-4.555 1.461-3-1h2c-0.184 0.85 0.39 0.95 1 1z"/>
	<path d="m41.917 322.96c1.903 0.381-0.639 1.272-2 1-1.903-0.38 0.639-1.27 2-1z"/>
	<path d="m27.919 303.96c0.318 1.766-5.602 1.785-4-0.999 2.09-0.42 2.648 0.69 4 1z"/>
	<path d="m18.832 81.346c-6.896-11.763-11.573-25.743-11.911-44.065 10.636 10.013 12.07 25.555 11.911 44.065z" fill="#CBB676"/>
	<path d="m13.92 293.96c-1.868 3.074-4.75-1.154-3.999-4 3.407-0.74 1.648 3.69 3.999 4z" fill="#fff"/>
	<path d="m112.91 439.94c9.604 2.813 21.04 0.247 21.998 9.999 0.627 6.39-4.98 7.008-8.999 12.998-2.095 3.122-2.292 7.665-3.999 9.999-2.083 2.847-7.754 8.163-11.999 9.999-15.212 6.575-45.09 4.11-52.993-1-7.338-4.745-7.951-15.628-9.999-24.997-2.906-1.76-7.054-2.278-10.999-3-7.654-24.009-11.068-49.417-21.997-71.991-3.495-7.221-7.673-14.509-8.999-21.997-1.797-10.151 0.335-22.759 0-35.995-0.292-11.55-4.82-27.376 1-34.996 0.967-9.203-3.937-18.274-4.999-25.996-4.334-31.488 7.721-59.163 12.998-83.99-10.608-18.093-14.322-50.611-1-66.992 3.043-3.74 6.494-8.974 10.999-11.999-4.97-5.766-6.611-14.721-9.999-22.997-4.013-9.804-8.497-18.758-8.999-29.996-0.717-16.044 5.677-30.466 10.997-43.988 9.042 7.289 13.721 18.942 19.997 28.997 2.406-16.93 17.526-26.467 27.998-31.997 1.242 9.308 0.831 16.474-2 23.997-2.409 6.404-8.622 10.738-8.999 16.998-0.775 12.891 15.329 25.764 6 42.995 5.989 0.631 10.458-2.698 18.997-1 4.563 0.908 9.32 5.443 14.998 9.999 4.563 3.662 10.79 6.79 13.999 9.999 8.377 8.377 12.798 23.866 18.997 35.996 2.721 5.322 5.739 8.798 5.999 11.999 1.047 12.885-9.89 20.089-15.997 28.997-0.664 5.996 0.906 9.758 0.999 14.998-3.67-0.997-1.694-7.638-2.999-10.999-2.954 3.045-3.312 8.686-4 13.998-0.206 3.873 3.425 3.908 4 6.999 0.054 4.611-0.444 9.775 0.999 12.999 1.816 1.851 6.033 1.299 8 3 2.9 21.133 19.105 40.826 21.996 63.992 2.744 21.979 0.059 40.652-2.999 62.992-9.099 18.809-16.784 39.376-20.997 62.992-0.676 3.788-2.553 7.615-3 11.998-0.76 7.43 1.19 13.39-5 16.98zm-83.992-134.98c1.221-0.113 2.368-0.299 2-1.999-5.09-5.104-8.728 3.883-11.998-1 1.177-0.157 2.838 0.172 2.999-1-2.506 0.916-6.178-4.028-7.999 0 1.772 0.228 5.008-1.008 4 2-1.786-1.214-5.817-0.183-6.999-2-0.117-1.023 4.313-2.023 1-3-1.682 3.83-5.738-3.408-7 0 1.274 1.393 4.898 0.435 5 3-2.409 0.409-2.174-1.826-5-1 3.298 18.188-0.738 36.54 1 53.993 1.529 15.348 8.212 23.069 12.999 34.996 8.028 20.001 13.062 41.828 17.997 62.992 20.805 4.062 49.324 2.333 65.992-4-0.313-2.407 4.363-4.842 1-6.999-0.012 1.009-1.752 1.258-2 0 1.278-0.055 1.385-1.282 3-1-2.552-19.709 5.017-36.081 9.998-48.994 4.328-11.217 8.842-21.513 13.998-30.996 2.711-4.982 6.662-9.163 9-13.998 5.511-11.399 6.675-34.568 3.999-46.994-12.145 5.595-28.131 16.63-43.995 11.999-0.715-2.716 4.715 0.715 4-2-5.662 0.06-14.041-1.143-13.998 3.999-2.483-1.3-4.149 2.934-5 0-0.45-2.783 5.45 0.784 5-1.999-3.925-2.251-6.703 1.286-9.999-1-1.554 3.554 3.396 0.604 3 2.999-7.546 1.555-7.81 9.285-6.999 15.998 1.623 13.463 2.113 33.607-8.999 36.995-10.011 3.053-13.62-5.579-19.998-12.998-2.574 7.758 2.033 22.697-3.999 26.997-10.434-1.565-20.427-3.57-26.997-8.999-4.872-11.867 1.138-30.271-1.999-40.995 1.336-1.261 1.963-3.005 3.999-1 0.459-4.589-3.703-8.317-2-10.998 1.428 0.239 1.687 1.646 3 1.999 1.46-1.872 0.039-6.626 2-7.999 3.696 0.304 3.749 4.25 5.999 6 3.081 0.747 1.219-3.447 4.999-2-0.869 2.651 2.442 6.067 3 3.999-3.156-3.19 1.963-14.64-4.011-15zm111.98-13c0.907-26.592-15.319-44.658-20.997-67.992-3.43 5.597-12.49 1.798-16.998 8.999 4.566-1.886 2.977 11.795 3 15.998-2.043-2.957-7.467-2.533-9-6-0.955 1.862 2.995 3.342 0 4-1.803-3.863-2.363-8.968-5.998-10.999-0.527 3.883 2.832 8.86 3.999 10.999 1.196 2.194 0.427 4.745 1 5.999 0.351 0.767 1.794-0.326 1.999 1 0.425 2.734-0.121 0.463 1 2.999 2.559 5.783 1.564 11.612 4 17.998-4.059 0.288-0.209 0.825 0 2 1.088 6.137-0.65 15.307 2 22.997h-2c3.262 4.027-1.334 4.379 2 8.999-1.009 0.012-1.258 1.752 0 2v-2c4.819 2.107 6.635-1.896 10.998 0 1.011-1.511 5.012-5.021 7-5 0.391 0.005-0.176 2.371 0.999 2 1.628-0.513 2.183-5.792 4.999-2 3.511-7.944 11.259-1.625 12.999-10.998-2.555-0.772-4.597 3.912-5.999 1 1.32-1.03 3.69-0.99 5-2.01zm-27.99 137.99c3.891-8.462 3.367-21.818 6-31.996 4.215-16.292 14.429-29.211 14.998-40.994-10.092 22.905-26.256 45.067-25.996 74.99 0.273-0.908 3.725-3.358 3.999-1-3.317 0.682-4.807 3.193-4.999 6.999 2.384 1.407 7.273-1.595 7.998-4.999 0.3-1.97-1.35-1.99-2-3zm-41.996 53.99c12.079 1.519 31.95 0.626 40.995-5.999 6.742-4.938 11.892-14.844 11.998-18.997-6.288-9.762-21.032-0.128-29.996-6-13.818 4.641-27.208 3.523-44.994 4 0.868 15.8 7.69 25.2 21.994 27zm53.996-25c5.358-0.642 7.538-4.462 7.999-9.999-2.139-5.194-9.489-5.176-16.998-5-2.684-0.664-5.314-4.39-7.998-1.999-1.316 5.35-4.604 8.728-9 10.998 10.21-0.56 23.3-3.24 26 6zm1-300.96c7.763-1.25 1.417-9.319-1-11.999 0.091-1.576 2.551-0.783 2-3-7.959-9.249-10.058-28.254-21.997-38.995-2.301-2.069-5.447-2.027-7.999-4-2.422-1.872-3.602-6.017-5.999-7.999-13.398-11.075-31.709-6.837-44.995-1 0.575 7.575-2.849 11.149-2.999 17.998-2.681-0.835-3.592 1.959-6 3-2.261-4.738-6.463-7.535-9.998-10.999-13.087 7.817-22.788 24.331-20.998 43.995 1.301 14.281 8.018 27.378 11.999 37.995 33.066 1.929 65.076 4.915 88.989 15.998-2.188-8.855 4.66-13.654 6.999-19.998 2.327-6.312 0.332-13.774 4.999-19.998 0.636 5.993-4.61 11.355-2 15.998 3.63-4.66 13.7-10.3 9-17zm-12 64.99c-2.704-4.628-1.617-13.047-2.999-18.998-23.214-15.857-65.22-15.717-96.988-19.997-2.106 20.259-13.474 38.361-6.999 60.992 8.986-15.039 23.219-33.164 40.995-40.995 28.108-12.383 40.251 11.131 53.993 23.997 2.96-2.69 10.43-0.89 12-4.99zm-11 19c-0.012 1.321-1.752 0.914-2 2 1.862-0.956 3.342 2.995 4 0-1.32-0.01-0.91-1.75-2-2zm0-1c0.13-5.462-2.575-8.09-6-9.999-4.563 2.91-0.901 12.19 6 10zm-27.996 67.99c0.02-15.987-6.223-44.17 7.998-48.994-2.005 2.036-0.26 2.663 1 4-1.453 0.547-5.168-1.169-4.999 0.999 2.813 0.853 4.491 2.842 3.999 7-1.869-1.464-1.18-5.486-4.999-5-3.297 12.032-1.181 26.964 0 39.995 8.869-0.13 18.001 0.003 23.997-3-0.221-26.442-5.168-48.159-13.998-65.991-0.132-2.465-0.151-4.817 1-6-8.268-12.483-21.941-26.333-38.995-15.998-7.03 4.26-14.539 17.304-16.998 28.997-4.708 22.382 2.715 52.826 1 73.99 0.297 2.036 2.002 2.664 2.999 4-1.129 1.204-2.854 1.812-1.999 4.999 14.054 4.448 26.594-5.619 37.995-9.998-0.183-2.595 3.195-6.697 1-7.999 0.306 1.212-2.889 3.447-3 1 0.15-1.85 3.385-0.61 4-2zm16.998-75.99c1.285-1.714 2.066-3.932 4.998-4 0.947-5.334-3.818-4.96-4.998-7.999-1.203-3.095-3.368-0.519-4-4-0.724-3.983-6.205-4.564-8.999-6.999-2.936-2.558-2.923-4.578-5.999-6-2.847-1.315-8.061-2.302-10.999 0-0.878-4.498-3.876 2.897-6.999-1-0.637 3.626-5.122 3.461-7.999 3 0.237 1.564-0.342 2.332-1 3-4.249 4.31-10.383 6.233-12.998 6 1.876 4.019-2.293 2.55-4 4-0.049 0.042-2.161 1.934-3.999 4 0.367-0.413 1.265 1.263 1 2-0.943 2.624-4.64-2.214-2 3-3.246 1.284-6.604 2.48-3 3-3.806 2.391-2.504 2.744-2.999 4.999-0.382 1.737-4.297 1.367-4 1-1.988 2.455-0.585 7.338-5.999 7.999 0.596 4.642-3.07 6.388-1 13.998 5.689-2.27 5.471-9.395 9.999-12.998-0.046 0.037 4.587-7.222 6.999-6-2.031-6.26 4.305-5.673 6.999-9.999-0.297 0.477-2.012-3.787 1-3 0.224 0.776 0.027 1.972 1 2 1.231-4.072 5.314-7.304 9.999-9.999-0.145 0.083 1.54-1.688 2.999-3 5.639-5.065 14.793-5.162 21.997-6.999-0.301 4.085 1.385-0.168 4 1 7.867 8.268 11.848 10.66 19.998 21.997-0.556 0-1.136 0.81 0 1zm-37.996 122.99c1.621 4.044 5.344 5.988 7.999 8.999 13.874-4.722 10.449-27.771 7.999-42.995-7.471 3.861-15.059 7.605-24.997 8.999-0.17 1.496 0.357 3.69-0.999 3.999-0.127-2.872-1.252-4.748-5-3.999 4.211 12.457 8.696 29.962 19.998 31.996-3.166-0.22-6.714-5.22-5-7zm7.94-350.96c-7.887 7.404-18.886 22.126-11.376 37.541 3.144-11.39 14.288-31.605 11.376-37.541zm-22.939 29.997c0.587 3.887 5.073 7.493 6.999 11.999 5.972 13.969 3.408 26.423 0 41.995 4.183-0.151 5.926-2.74 9.999-3 9.832-23.037-8.535-34.558-10.999-50.994-1.969-13.141 2.794-19.477 6-24.997-6.91 6.317-13.542 14.768-11.999 24.997zm7 33.995c2.12-19.519-5.755-26.747-12.998-37.995-5.257-8.164-9.996-16.136-14.999-21.997 0.366 8.28-6.896 15.96-5.999 25.997 0.637 7.134 9.563 15.248 10.998 24.997 1.143 7.759-2.192 16.594-1 23.997 1.627 10.096 10.606 19.378 16.998 21.998-2.584-12.425 5.593-24.051 7-36.999zm-7 268.97c-11.68-0.123-15.631-5.557-24.997-4.999 2.252 14.396 0.303 20.597 0 32.995 3.308 0.359 1.872 5.461 5 6 2.489-3.125 2.376 2.051 2.999 2 1.493-5.597 5.357 3.968 6.999 0.999 0.939-2.501 9.006 5.189 12.999-0.999-0.236-2.995-3.518-5.442 0-8-5.786 0.008 2.836-4.016-1-4.999-0.64 0.433 0.277-7.97 1-10.998 0.224 0.775 0.027 1.972 1 1.999-0.951-5.05-1.763-10.24-4-14zm-29.996-69.99c7.448 10.55 8.953 27.043 21.997 31.996-1.164-28.289-1.864-54.278 5.999-71.991-10.457 12.2-20.36 24.96-27.996 39.99zm23.997 61.99c1.853 0.56 2.485 7.407 4.999 4-1.48-0.187-0.916-2.417-1-4-2.279 1.37-3.757-2.58-3.999 0zm-2-4c0.057-0.61 0.149-1.184 1-1 0.224 0.775 0.027 1.972 1 2-0.055-3.655-4.155-8.452-5.999-7 2.541 0.458 1.677 4.322 3.999 5-0.554 0-1.134 0.81 0 1zm1 5c-4.092-4.677-5.409-13.66-12.998-11.999-1.389 6.746 3.035 12.931 5.999 11.999-1.062-1.35-2.372-7.521-1-7.999 2.678 2.35 4.515 10.781 6.999 9.999-1.78-0.49 0.434-1.07 1-2zm-22.997-52c3.444 6.221 4.841 14.49 9.999 18.997-2.542-7.12-5.916-13.41-9.999-19zm-2-241.68c0.337 18.322 5.015 32.302 11.91 44.065 0.16-18.51-1.274-34.052-11.91-44.065zm3 252.68c-0.751 2.846 2.131 7.074 3.999 4-2.351-0.31-0.592-4.74-3.999-4zm-4-17c1.651 0.016 0.56 2.773 2 3 0.858-2.04-1.573-5.5-2-3zm-3.999-24.99c1.547 4.259-0.85 12.922 2.999 18.998-1.428-6.43 0.431-16.89-2.999-19z"/>
	<path d="m32.918 319.96c-0.558 2.068-3.869-1.348-3-3.999-3.78-1.447-1.918 2.747-4.999 2-2.25-1.75-2.303-5.696-5.999-6-1.961 1.373-0.54 6.127-2 7.999-1.313-0.353-1.572-1.76-3-1.999-1.703 2.681 2.459 6.409 2 10.998-2.036-2.005-2.663-0.261-3.999 1 3.137 10.724-2.873 29.128 1.999 40.995 6.57 5.429 16.563 7.434 26.997 8.999 6.032-4.3 1.425-19.239 3.999-26.997 6.378 7.419 9.987 16.051 19.998 12.998 11.112-3.388 10.622-23.532 8.999-36.995-0.811-6.713-0.547-14.443 6.999-15.998 0.396-2.396-4.554 0.555-3-2.999 3.296 2.286 6.074-1.251 9.999 1 0.45 2.783-5.45-0.784-5 1.999 0.851 2.934 2.517-1.3 5 0-0.043-5.142 8.336-3.939 13.998-3.999 0.715 2.715-4.715-0.716-4 2 15.864 4.631 31.851-6.404 43.995-11.999 2.676 12.426 1.512 35.595-3.999 46.994-2.338 4.835-6.289 9.016-9 13.998-5.156 9.483-9.67 19.779-13.998 30.996-4.981 12.913-12.55 29.285-9.998 48.994-1.615-0.282-1.722 0.945-3 1 0.248 1.258 1.988 1.009 2 0 3.363 2.157-1.313 4.592-1 6.999-16.668 6.333-45.188 8.062-65.992 4-4.935-21.164-9.969-42.991-17.997-62.992-4.787-11.927-11.47-19.648-12.999-34.996-1.738-17.453 2.298-35.805-1-53.993 2.826-0.826 2.591 1.409 5 1-0.102-2.565-3.726-1.607-5-3 1.262-3.408 5.318 3.83 7 0 3.313 0.977-1.117 1.977-1 3 1.182 1.817 5.213 0.786 6.999 2 1.008-3.008-2.228-1.772-4-2 1.821-4.028 5.493 0.916 7.999 0-0.161 1.172-1.822 0.843-2.999 1 3.271 4.883 6.908-4.104 11.998 1 0.368 1.7-0.779 1.886-2 1.999 5.983 0.36 0.864 11.81 4.009 15zm64.992 123.98c0.016-1.65 2.773-0.559 3-1.999-0.77-2.08-6.012 0.74-3 2zm-4.999-132.98c-6.053-0.8-0.667 4.58 0 0zm-5.999 134.98c1.862-0.138 3.342-0.657 4-2-2.28-0.28-3.76 0.24-4 2zm-4 0c1.361 0.272 3.904-0.619 2-1-1.362-0.27-3.903 0.62-2 1zm-2.999-1c-5.143 2.42 3.442 2.59 0 0zm-6.999 3c1.496-0.17 3.689 0.357 3.999-1-1.33-1.29-3.72-1.32-3.999 1zm-5 1c2.279 0.279 3.759-0.241 4-2-1.772 0.23-5.008-1-4 2zm-5.999-2v2h4v-2h-4zm-5.999 0c-1.602 2.784 4.318 2.765 3.999 1-1.352-0.31-1.91-1.42-3.999-1zm-4.999 0v2h3.999v-2h-3.999zm-4-1c0.003 1.003-0.81 1.19-1 2 1.571-0.096 3.467 0.134 3-2h-2zm-4-1h-2c-1.555 2.461 3.396 2.94 3 1-0.61-0.05-1.184-0.15-1-1zm-18.998-141.98c-1.602 2.784 4.318 2.765 4 0.999-1.352-0.31-1.91-1.42-4-1z" fill="#0069AA"/>
	<path d="m135.91 293.96c1.402 2.912 3.444-1.772 5.999-1-1.74 9.373-9.488 3.054-12.999 10.998-2.816-3.792-3.371 1.487-4.999 2-1.175 0.371-0.608-1.995-0.999-2-1.988-0.021-5.989 3.489-7 5-4.363-1.896-6.179 2.107-10.998 0v2c-1.258-0.248-1.009-1.988 0-2-3.334-4.62 1.262-4.972-2-8.999h2c-2.65-7.69-0.912-16.86-2-22.997-0.209-1.175-4.059-1.712 0-2-2.436-6.386-1.441-12.215-4-17.998-1.121-2.536-0.575-0.265-1-2.999-0.205-1.326-1.648-0.233-1.999-1-0.573-1.254 0.196-3.805-1-5.999-1.167-2.139-4.526-7.116-3.999-10.999 3.635 2.031 4.195 7.136 5.998 10.999 2.995-0.658-0.955-2.138 0-4 1.533 3.467 6.957 3.042 9 6-0.023-4.203 1.566-17.884-3-15.998 4.508-7.201 13.568-3.402 16.998-8.999 5.678 23.334 21.904 41.4 20.997 67.992-1.32 1.03-3.69 0.99-5 2.01zm-17-64.99c0.003 1.003-0.811 1.19-1 2 1.571-0.096 3.467 0.134 3-2h-2zm16 65.99c-6.06-0.8-0.67 4.59 0 0zm-7 5c0.11-1.889 3.306-0.694 2.999-3-1.73-0.25-5.93 1.88-3 3zm-10 3c4.598-1.305 5.058-0.804 7.999-3-3.57 0.1-6.87 0.47-8 3zm-4-70.99c1.158 2.437 4.71-1.115 2-2-0.01 1.32-1.75 0.91-2 2zm-2 71.99h-5.999c0.124 2.209 4.241 0.425 5.999 1 1.833-1.605 3.386 0.924 4.999-1.999-1.77-1.86-2.92 0.44-5 1zm-5-69.99c2.156 0.063 8.031-1.173 4.999-3-0.42 2.25-5.48-0.15-5 3zm0 64.99c0.383-9.339-2.898 2.625 0 4 1.67-1.98-0.09-1.27 0-4zm-1-14c-0.004-1.003 0.81-1.19 1-2-1.61-2.73-3.36 1.47-1 2zm-1 1c1.799 3.745-1.559 6.43 2 7.999-0.83-2.51 1.94-8.61-2-8zm-1-12c-0.054 1.721 0.77 2.563 2 3-0.1-1.57 0.13-3.46-2-3zm-2-11.99c1.322 3.343 0.879 8.453 3 10.998-1.24-4.71 1.08-8.21-3-11zm-1-5c-0.279 2.279 0.241 3.759 2 4-0.14-1.87-0.66-3.35-2-4zm-2-5c-1.059 2.536 2.105 5.699 3 3-1.89-0.11-0.69-3.31-3-3z" fill="#0069AA"/>
	<path d="m114.91 432.95c-0.725 3.404-5.614 6.406-7.998 4.999 0.192-3.806 1.682-6.317 4.999-6.999-0.274-2.358-3.726 0.092-3.999 1-0.26-29.923 15.904-52.085 25.996-74.99-0.569 11.783-10.783 24.702-14.998 40.994-2.633 10.178-2.109 23.534-6 31.996 0.65 1.01 2.3 1.03 2 3z" fill="#0069AA"/>
	<path d="m125.91 299.96c-2.941 2.196-3.401 1.695-7.999 3 1.13-2.53 4.43-2.9 8-3z"/>
	<path d="m116.91 155.98c-7.042 0.957-11.158 4.839-17.997 5.999 5.364-3.019 12.479-8.318 19.997-5.999-5.916 8.082-15.551 12.445-22.997 18.998 0.508-5.486 9.688-7.593 14.998-11.999 2.55-2.12 4.06-4.99 6-7z"/>
	<path d="m116.91 302.96c-1.613 2.923-3.166 0.394-4.999 1.999-1.758-0.575-5.875 1.209-5.999-1h5.999c2.08-0.56 3.23-2.86 5-1z"/>
	<path d="m113.91 148.98c-5.356 2-13.118-2.196-15.998-6 4.838 2.5 9.898 4.77 15.998 6z"/>
	<path d="m104.91 272.96c-2.121-2.545-1.678-7.655-3-10.998 4.08 2.8 1.76 6.3 3 11z"/>
	<path d="m96.91 230.97c3.425 1.908 6.13 4.536 6 9.999-6.901 2.19-10.563-7.09-6-10zm-0.999 3c-0.171 2.837 3.382 1.951 1.999 5.999 6.69 0.85 0.147-9.46-1.999-6z" fill="#FFE0BB"/>
	<path d="m91.912 231.97c-8.15-11.337-12.131-13.729-19.998-21.997-2.615-1.168-4.301 3.085-4-1-7.204 1.837-16.358 1.934-21.997 6.999-1.459 1.312-3.144 3.083-2.999 3-4.685 2.695-8.768 5.926-9.999 9.999-0.973-0.027-0.776-1.224-1-2-3.012-0.787-1.297 3.476-1 3-2.694 4.325-9.03 3.739-6.999 9.999-2.412-1.222-7.045 6.036-6.999 6-4.528 3.604-4.31 10.729-9.999 12.998-2.07-7.61 1.596-9.356 1-13.998 5.414-0.661 4.011-5.544 5.999-7.999-0.297 0.367 3.618 0.737 4-1 0.495-2.255-0.807-2.608 2.999-4.999-3.604-0.52-0.246-1.716 3-3-2.64-5.214 1.057-0.375 2-3 0.265-0.737-0.633-2.413-1-2 1.838-2.066 3.95-3.958 3.999-4 1.707-1.45 5.876 0.02 4-4 2.615 0.233 8.749-1.69 12.998-6 0.658-0.667 1.237-1.435 1-3 2.877 0.462 7.362 0.627 7.999-3 3.123 3.896 6.121-3.499 6.999 1 2.938-2.302 8.152-1.315 10.999 0 3.076 1.422 3.063 3.441 5.999 6 2.794 2.435 8.275 3.016 8.999 6.999 0.632 3.481 2.797 0.904 4 4 1.18 3.039 5.945 2.665 4.998 7.999-2.932 0.068-3.713 2.286-4.998 4-1.136-0.19-0.556-1 0-1z" fill="#0069AA"/>
	<path d="m58.916 362.96c-11.302-2.034-15.787-19.539-19.998-31.996 3.748-0.749 4.873 1.127 5 3.999 1.356-0.309 0.829-2.503 0.999-3.999 9.938-1.394 17.526-5.138 24.997-8.999 2.45 15.224 5.875 38.273-7.999 42.995-2.655-3.011-6.378-4.955-7.999-8.999-1.714 1.78 1.834 6.78 5 7zm-8.999-12c-0.877 2.06 2.593 4.49 2.999 2-1.427-0.24-1.686-1.65-2.999-2zm-1-3c-2.894-6.37 1.729 3.8 0 0zm-3-7c-0.279 2.279 0.241 3.759 2 3.999-0.138-1.87-0.659-3.34-2-4zm-2-5c-0.055 1.721 0.77 2.563 1.999 3-0.094-1.57 0.134-3.47-1.999-3z" fill="#CBB676"/>
	<path d="m63.915 313.96c1.714 2.948-2.184 2.908-4.999 4.999-0.007-3.34 4.015-2.65 4.999-5z"/>
	<path d="m50.48 42.54c-7.51-15.415 3.489-30.137 11.376-37.541 2.912 5.936-8.232 26.151-11.376 37.541z" fill="#F1E5C8"/>
	<path d="m50.917 9.999c-3.206 5.52-7.969 11.856-6 24.997 2.464 16.436 20.831 27.957 10.999 50.994-4.073 0.26-5.816 2.849-9.999 3 3.408-15.571 5.972-28.025 0-41.995-1.926-4.506-6.412-8.112-6.999-11.999-1.544-10.229 5.088-18.68 11.999-24.997z" fill="#CBB676"/>
	<path d="m42.917 351.96c-0.973-0.027-0.776-1.224-1-1.999-0.723 3.028-1.64 11.431-1 10.998 3.836 0.983-4.786 5.007 1 4.999-3.518 2.558-0.236 5.005 0 8-3.993 6.188-12.06-1.502-12.999 0.999-1.642 2.969-5.506-6.596-6.999-0.999-0.623 0.051-0.51-5.125-2.999-2-3.128-0.539-1.692-5.641-5-6 0.303-12.398 2.252-18.6 0-32.995 9.366-0.558 13.317 4.876 24.997 4.999 2.237 3.76 3.049 8.95 4 14z" fill="#0069AA"/>
	<path d="m36.917 227.97c-7.863 17.713-7.163 43.702-5.999 71.991-13.044-4.953-14.549-21.446-21.997-31.996 7.636-15.02 17.539-27.78 27.996-39.99z" fill="#fff"/>
	<path d="m36.917 329.96c0.084 1.583-0.48 3.813 1 4-2.514 3.407-3.146-3.44-4.999-4 0.242-2.58 1.72 1.37 3.999 0z" fill="#E31836"/>
	<path d="m30.918 324.96c-2.322-0.678-1.458-4.542-3.999-5 1.844-1.452 5.944 3.345 5.999 7-0.973-0.028-0.776-1.225-1-2-0.851-0.184-0.943 0.39-1 1-1.134-0.19-0.554-1 0-1z" fill="#E31836"/>
	<path d="m30.918 332.96c-2.484 0.782-4.321-7.649-6.999-9.999-1.372 0.479-0.062 6.649 1 7.999-2.964 0.932-7.388-5.253-5.999-11.999 7.589-1.661 8.906 7.322 12.998 11.999-0.566 0.93-2.78 1.51-1 2z" fill="#E31836"/>
	<path d="m18.92 297.96c-5.158-4.507-6.555-12.776-9.999-18.997 4.083 5.59 7.457 11.88 9.999 19z" fill="#0069AA"/>
	<path d="m7.921 275.96c-1.44-0.227-0.349-2.984-2-3 0.427-2.5 2.858 0.96 2 3z" fill="#0069AA"/>
	<path d="m4.921 266.97c-3.849-6.075-1.452-14.738-2.999-18.998 3.43 2.11 1.571 12.57 2.999 19z" fill="#0069AA"/>
	<path d="m101.91 227.97c-13.742-12.866-25.885-36.38-53.993-23.997-17.776 7.832-32.009 25.956-40.995 40.995-6.475-22.631 4.893-40.733 6.999-60.992 31.769 4.28 73.774 4.14 96.988 19.997 1.382 5.951 0.295 14.37 2.999 18.998-1.57 4.1-9.04 2.3-12 5z" fill="#fff"/>
	<path d="m82.913 119.98c0.686 3.353-1.678 3.655-4 4-0.859-0.807-0.594-2.739-2-3 0.02-2.74 4.717-2.37 6-1z"/>
</g>
<metadata><rdf:RDF><cc:Work><dc:format>image/svg+xml</dc:format><dc:type rdf:resource="http://purl.org/dc/dcmitype/StillImage"/><cc:license rdf:resource="http://creativecommons.org/licenses/publicdomain/"/><dc:publisher><cc:Agent rdf:about="http://openclipart.org/"><dc:title>Openclipart</dc:title></cc:Agent></dc:publisher><dc:title>bunny in overalls</dc:title><dc:date>2006-12-20T06:14:08</dc:date><dc:description>a side view of a rabbit in overalls from a U.S. patent drawing</dc:description><dc:source>http://openclipart.org/detail/2168/bunny-in-overalls-by-johnny_automatic</dc:source><dc:creator><cc:Agent><dc:title>johnny_automatic</dc:title></cc:Agent></dc:creator><dc:subject><rdf:Bag><rdf:li>animal</rdf:li><rdf:li>bunny</rdf:li><rdf:li>clip art</rdf:li><rdf:li>clipart</rdf:li><rdf:li>externalsource</rdf:li><rdf:li>hare</rdf:li><rdf:li>image</rdf:li><rdf:li>mammal</rdf:li><rdf:li>media</rdf:li><rdf:li>overalls</rdf:li><rdf:li>png</rdf:li><rdf:li>public domain</rdf:li><rdf:li>rabbit</rdf:li><rdf:li>svg</rdf:li><rdf:li>toy</rdf:li><rdf:li>uspto</rdf:li></rdf:Bag></dc:subject></cc:Work><cc:License rdf:about="http://creativecommons.org/licenses/publicdomain/"><cc:permits rdf:resource="http://creativecommons.org/ns#Reproduction"/><cc:permits rdf:resource="http://creativecommons.org/ns#Distribution"/><cc:permits rdf:resource="http://creativecommons.org/ns#DerivativeWorks"/></cc:License></rdf:RDF></metadata></svg>
